<svg width="376" height="62" viewBox="0 0 376 62" fill="none" xmlns="http://www.w3.org/2000/svg">
<path d="M19.7042 60.2001C19.7161 60.9796 19.3468 61.3873 18.6439 61.4113C15.8325 61.5072 13.017 61.5991 10.1976 61.6871C9.49471 61.7111 9.13732 61.3393 9.1254 60.5718C9.1254 51.7778 9.1254 43.0037 9.1254 34.2496C6.44099 34.5374 3.76453 34.8252 1.096 35.1131C0.73861 35.149 0.476522 35.0771 0.297826 34.8972C0.107218 34.7293 0.0119131 34.4655 0 34.1177C0 31.4795 0 28.8373 0 26.1911C0 25.8433 0.107218 25.5555 0.285913 25.3397C0.488435 25.1238 0.73861 24.9799 1.096 24.9439C9.99109 23.6888 18.8822 22.4176 27.7693 21.1305C28.1267 21.0825 28.3888 21.1545 28.5794 21.3344C28.77 21.5143 28.8653 21.814 28.8653 22.1858C28.8653 25.0718 28.8614 27.9459 28.8534 30.808C28.8653 31.1917 28.77 31.4915 28.5675 31.7313C28.3888 31.9712 28.1267 32.1031 27.7693 32.1391C25.0849 32.4429 22.4005 32.7507 19.7161 33.0624C19.7082 42.0883 19.7042 51.1342 19.7042 60.2001ZM58.8624 58.785C58.8743 59.2048 58.779 59.5285 58.5884 59.7564C58.3859 59.9962 58.1238 60.1161 57.7902 60.1281C49.5702 60.4 41.3463 60.6718 33.1183 60.9436C32.4035 60.9676 32.0461 60.5598 32.0461 59.7564C32.0382 47.1249 32.0382 34.4535 32.0461 21.7421C32.0461 20.9266 32.4035 20.459 33.1064 20.363C41.2152 19.1878 49.3121 18.0206 57.3971 16.8614C57.7426 16.8134 58.0166 16.8854 58.2072 17.1012C58.374 17.2931 58.4693 17.6049 58.4812 18.0126C58.4812 21.0106 58.4772 24.0006 58.4693 26.9826C58.4812 27.822 58.1119 28.2897 57.3971 28.3736C52.4731 28.9332 47.549 29.4969 42.6249 30.0645C42.617 31.5994 42.617 33.1304 42.6249 34.6574C46.3418 34.2736 50.0547 33.8939 53.7636 33.5181C54.1091 33.4822 54.3593 33.5781 54.5499 33.782C54.7524 33.9858 54.8477 34.2976 54.8477 34.7053C54.8477 37.3755 54.8477 40.0457 54.8477 42.7159C54.8477 43.5673 54.4784 44.023 53.7755 44.071C50.0587 44.3508 46.3418 44.6266 42.6249 44.8984C42.617 46.4894 42.617 48.0763 42.6249 49.6592C47.684 49.3474 52.7351 49.0396 57.7783 48.7358C58.4931 48.6879 58.8743 49.0836 58.8624 49.923C58.8704 52.881 58.8704 55.835 58.8624 58.785ZM72.9675 58.2814C72.9675 58.7011 72.8841 59.0369 72.7054 59.2767C72.5148 59.5166 72.2527 59.6485 71.8953 59.6605C69.195 59.7484 66.4868 59.8363 63.7706 59.9243C63.0677 59.9483 62.7103 59.5166 62.7103 58.6531C62.7024 44.9664 62.6984 31.2237 62.6984 17.425C62.6984 16.5376 63.0558 16.0459 63.7706 15.95C66.6694 15.5343 69.5683 15.1186 72.4671 14.7029C72.765 14.6669 73.0151 14.7029 73.2057 14.8228C73.4202 14.9307 73.5989 15.1346 73.7537 15.4344C77.2324 22.2937 80.707 29.229 84.1777 36.2403C84.1777 28.9972 84.1777 21.7301 84.1777 14.439C84.1658 14.0073 84.2611 13.6356 84.4636 13.3718C84.6542 13.0959 84.9163 12.94 85.2618 12.8921C87.97 12.5003 90.6822 12.1126 93.3984 11.7289C93.7319 11.6809 94.0059 11.7768 94.1966 12.0047C94.3872 12.2085 94.4706 12.5683 94.4706 13.012C94.4706 27.9219 94.4706 42.7519 94.4706 57.5019C94.4706 57.9576 94.3872 58.2934 94.1966 58.5452C93.994 58.809 93.7319 58.9409 93.3984 58.9529C90.841 59.0329 88.2877 59.1168 85.7383 59.2048C85.2141 59.2168 84.7852 58.917 84.4636 58.3174C80.6276 50.6346 76.7995 43.0437 72.9794 35.5448C72.9715 43.1396 72.9675 50.7185 72.9675 58.2814ZM117.379 56.7104C117.379 57.6818 117.034 58.1974 116.319 58.2214C113.5 58.3094 110.684 58.3973 107.873 58.4853C107.17 58.5092 106.812 58.0296 106.812 57.0702C106.812 45.8458 106.812 34.5814 106.812 23.2771C104.128 23.5729 101.448 23.8687 98.7712 24.1645C98.4257 24.2004 98.1517 24.1045 97.9611 23.8647C97.7824 23.6368 97.6871 23.301 97.6871 22.8334C97.6791 19.4197 97.6791 15.998 97.6871 12.5683C97.6871 12.1126 97.7705 11.7409 97.9611 11.465C98.1517 11.1892 98.4138 11.0213 98.7712 10.9734C107.658 9.71823 116.557 8.46707 125.468 7.21992C125.802 7.17195 126.076 7.27988 126.255 7.51971C126.433 7.74756 126.541 8.1313 126.541 8.61098C126.541 12.2805 126.537 15.942 126.529 19.5955C126.529 20.0872 126.445 20.471 126.255 20.7588C126.076 21.0466 125.802 21.2145 125.468 21.2504C122.776 21.5382 120.084 21.83 117.391 22.1258C117.391 33.71 117.387 45.2382 117.379 56.7104ZM159.242 55.2954C159.313 55.5113 159.349 55.7391 159.349 55.967C159.337 56.3147 159.266 56.5905 159.087 56.7944C158.944 56.9983 158.718 57.1062 158.432 57.1182C155.525 57.1741 152.63 57.2341 149.747 57.2981C149.116 57.31 148.723 56.8783 148.544 56.0269C148.123 54.1402 147.702 52.2455 147.281 50.3428C143.382 50.4787 139.49 50.6226 135.606 50.7745C135.177 52.6692 134.757 54.5519 134.344 56.4226C134.165 57.2621 133.76 57.7058 133.14 57.7298C130.265 57.8097 127.39 57.8897 124.515 57.9696C124.194 57.9816 123.955 57.8976 123.789 57.7058C123.634 57.4899 123.562 57.2261 123.55 56.9023C123.55 56.7104 123.574 56.5066 123.634 56.2907C127.946 40.1656 132.255 23.6848 136.559 6.84817C136.786 5.98475 137.191 5.52906 137.798 5.44512C140.26 5.10934 142.718 4.76958 145.173 4.42581C145.804 4.34186 146.197 4.70162 146.411 5.52906C150.692 22.1098 154.969 38.6986 159.242 55.2954ZM144.386 37.7273C143.576 33.9299 142.766 30.1364 141.956 26.347C141.765 25.4356 141.583 24.5242 141.408 23.6128C141.273 24.5482 141.13 25.4876 140.979 26.4309C140.169 30.3323 139.359 34.2177 138.549 38.087C140.487 37.9671 142.433 37.8472 144.386 37.7273ZM172.763 55.2834C172.751 55.7991 172.668 56.1828 172.477 56.4706C172.275 56.7584 172.025 56.9023 171.679 56.9023C168.971 56.9423 166.263 56.9823 163.554 57.0222C162.84 57.0342 162.482 56.4946 162.482 55.4513C162.482 38.5747 162.482 21.3903 162.482 3.89816C162.47 2.77093 162.828 2.17133 163.542 2.0754C166.449 1.72363 169.352 1.37987 172.251 1.04409C172.537 1.00812 172.787 1.08007 172.978 1.24795C173.18 1.40385 173.371 1.67966 173.526 2.0634C177.004 11.1453 180.479 20.2271 183.95 29.309C183.95 20.3071 183.95 11.1573 183.95 1.85954C183.95 1.29592 184.045 0.840232 184.224 0.528443C184.426 0.204662 184.688 0.0247833 185.034 0.0127914C187.75 -0.019187 190.466 0.00879376 193.182 0.0967343C193.516 0.108726 193.778 0.288605 193.968 0.612386C194.159 0.924175 194.254 1.39186 194.254 1.94348C194.246 20.2111 194.246 37.9631 194.254 55.1995C194.242 55.7151 194.159 56.1109 193.957 56.3867C193.766 56.6745 193.516 56.8184 193.182 56.8064C190.625 56.8064 188.064 56.8064 185.498 56.8064C184.986 56.8064 184.557 56.4346 184.235 55.7271C180.399 46.4134 176.575 37.0118 172.763 27.5222C172.755 36.9078 172.755 46.1616 172.763 55.2834ZM219.355 33.9139C219.367 33.4102 219.45 33.0025 219.653 32.7387C219.844 32.4628 220.106 32.3429 220.439 32.3549C223.044 32.5228 225.649 32.6907 228.254 32.8586C228.981 32.9065 229.326 33.4582 229.326 34.5135C229.326 40.1976 229.33 45.8618 229.338 51.506C229.326 52.3094 229.124 52.921 228.695 53.3167C227.099 54.8517 225.3 56.0269 223.263 56.8424C221.225 57.6698 219.093 58.0535 216.889 58.0176C213.399 57.9576 210.218 56.6865 207.359 54.1802C204.488 51.6379 202.212 48.2082 200.556 43.8791C198.924 39.4781 198.09 34.6334 198.102 29.321C198.102 23.9366 198.924 18.984 200.568 14.523C202.224 10.05 204.488 6.58435 207.359 4.22195C210.218 1.9195 213.387 1.02011 216.889 1.48779C218.998 1.76361 221.023 2.50711 222.941 3.73028C224.871 4.95345 226.634 6.54837 228.207 8.52703C228.516 8.88679 228.671 9.30651 228.659 9.78618C228.659 10.1459 228.588 10.4817 228.409 10.7935C226.773 13.8314 225.145 16.8894 223.525 19.9673C223.298 20.387 223.024 20.6029 222.727 20.5789C222.524 20.5549 222.286 20.423 222.024 20.1712C220.296 18.3484 218.581 17.3411 216.889 17.1972C215.471 17.0653 214.161 17.5449 212.91 18.6002C211.683 19.6675 210.694 21.2145 209.944 23.2051C209.205 25.1718 208.836 27.3783 208.836 29.8006C208.824 32.235 209.205 34.5015 209.968 36.5881C210.718 38.6746 211.707 40.3295 212.922 41.5767C214.185 42.8358 215.495 43.4714 216.889 43.5314C217.31 43.5474 217.731 43.5633 218.152 43.5793C218.676 43.5913 219.069 43.5913 219.367 43.5553C219.367 40.3495 219.363 37.1357 219.355 33.9139ZM278.992 57.1302C279.147 57.406 279.206 57.6818 279.194 57.9816C279.206 58.2334 279.123 58.4133 278.956 58.5692C278.801 58.7131 278.575 58.809 278.277 58.797C274.878 58.6851 271.471 58.5772 268.056 58.4733C267.782 58.4613 267.52 58.3773 267.329 58.2334C267.115 58.0775 266.924 57.8137 266.781 57.4539C264.375 51.8577 261.968 46.2135 259.562 40.5214C258.513 42.2322 257.457 43.9431 256.393 45.6539C256.401 49.3234 256.401 52.981 256.393 56.6265C256.405 57.5978 256.047 58.1015 255.333 58.0775C252.521 57.9976 249.714 57.9136 246.91 57.8257C246.183 57.8137 245.826 57.2861 245.826 56.2907C245.826 40.3575 245.826 24.2804 245.826 8.05935C245.826 7.02805 246.183 6.56036 246.898 6.66829C249.71 7.05203 252.521 7.43977 255.333 7.8315C256.047 7.93943 256.405 8.49106 256.405 9.49838C256.405 14.8947 256.405 20.2751 256.405 25.6395C259.447 20.419 262.488 15.2465 265.53 10.122C265.828 9.59431 266.269 9.36647 266.841 9.45041C270.295 9.93808 273.754 10.4257 277.217 10.9134C277.491 10.9494 277.729 11.0693 277.872 11.2492C278.027 11.4171 278.11 11.6209 278.11 11.8728C278.098 12.1486 278.003 12.4364 277.801 12.7602C274.004 18.4283 270.212 24.1605 266.424 29.9565C270.617 39.1663 274.806 48.2242 278.992 57.1302ZM316.125 58.5452C316.185 58.7371 316.208 58.9289 316.208 59.1088C316.208 59.3966 316.137 59.6245 315.97 59.7804C315.815 59.9483 315.589 60.0322 315.303 60.0202C312.404 59.9243 309.505 59.8283 306.606 59.7324C305.987 59.7084 305.606 59.3127 305.415 58.5692C304.994 56.9223 304.573 55.2674 304.152 53.6045C300.261 53.4207 296.365 53.2368 292.466 53.0529C292.045 54.7238 291.624 56.3947 291.203 58.0655C291.036 58.821 290.631 59.2048 290 59.1808C287.133 59.0848 284.258 58.9889 281.375 58.893C281.065 58.881 280.838 58.785 280.66 58.5932C280.493 58.3893 280.433 58.1375 280.433 57.8257C280.433 57.6338 280.457 57.4539 280.505 57.2501C284.817 42.7639 289.13 28.4296 293.442 14.2472C293.657 13.5396 294.062 13.2398 294.681 13.3238C297.135 13.6756 299.594 14.0273 302.056 14.3791C302.675 14.463 303.068 14.8707 303.283 15.6262C307.563 30.2084 311.844 44.5147 316.125 58.5452ZM301.246 42.5001C300.435 39.1423 299.629 35.7686 298.827 32.3789C298.645 31.5555 298.466 30.736 298.291 29.9206C298.148 30.704 298.001 31.4915 297.85 32.283C297.04 35.5448 296.23 38.8106 295.42 42.0803C297.366 42.2242 299.308 42.3642 301.246 42.5001ZM328.884 59.2527C328.8 60.0682 328.419 60.4519 327.74 60.4279C324.905 60.34 322.066 60.2481 319.222 60.1521C318.865 60.1401 318.591 60.0082 318.412 59.7804C318.222 59.5285 318.174 59.1808 318.222 58.7611C319.731 45.3381 321.232 31.9512 322.725 18.6002C322.761 18.2165 322.892 17.9407 323.094 17.7608C323.285 17.5809 323.571 17.521 323.88 17.5689C327.184 18.0406 330.48 18.5123 333.768 18.984C334.411 19.0799 334.805 19.4996 334.948 20.2311C336.568 28.3296 338.188 36.3362 339.808 44.2509C341.444 36.688 343.072 29.1411 344.692 21.6102C344.847 20.9386 345.229 20.6388 345.848 20.7228C349.16 21.2025 352.472 21.6821 355.784 22.1618C356.105 22.2098 356.367 22.3417 356.582 22.5695C356.772 22.7854 356.903 23.0732 356.939 23.433C358.448 35.8406 359.961 48.1442 361.478 60.344C361.549 61.1474 361.204 61.5552 360.441 61.5312C357.59 61.4353 354.739 61.3433 351.888 61.2554C351.209 61.2314 350.828 60.8357 350.756 60.0802C350.113 53.4207 349.47 46.7612 348.826 40.1017C347.468 46.6652 346.102 53.2808 344.728 59.9483C344.585 60.6318 344.204 60.9796 343.596 60.9556C341.126 60.8756 338.664 60.7957 336.21 60.7157C335.579 60.6918 335.186 60.32 335.019 59.6005C333.653 52.5892 332.291 45.55 330.933 38.4828C330.25 45.3901 329.567 52.3134 328.884 59.2527ZM376 60.9196C376 61.6631 375.631 62.0229 374.928 61.9989C372.116 61.8949 369.309 61.795 366.505 61.6991C365.767 61.6751 365.421 61.2674 365.421 60.5119C365.421 48.5999 365.421 36.664 365.421 24.7041C365.421 23.9366 365.779 23.6008 366.505 23.7088C369.309 24.1085 372.116 24.5002 374.928 24.884C375.631 24.9799 376 25.3996 375.988 26.1311C375.996 37.7473 376 49.3434 376 60.9196Z" fill="#8362DD"/>
</svg>
