<svg width="32" height="34" viewBox="0 0 32 34" fill="none" xmlns="http://www.w3.org/2000/svg">
<g filter="url(#filter0_d_270_116)">
<path d="M9.10852 0.647461H22.3002C27.3256 0.647461 31.4087 4.73059 31.4087 9.75598V22.9476C31.4087 25.3634 30.449 27.6802 28.7409 29.3883C27.0327 31.0965 24.7159 32.0562 22.3002 32.0562H9.10852C4.08313 32.0562 0 27.973 0 22.9476V9.75598C0 7.34025 0.959645 5.02346 2.66782 3.31529C4.376 1.60711 6.69279 0.647461 9.10852 0.647461ZM8.79443 3.78833C7.29502 3.78833 5.85701 4.38397 4.79676 5.44422C3.73651 6.50447 3.14087 7.94248 3.14087 9.4419V23.2617C3.14087 26.3869 5.66927 28.9153 8.79443 28.9153H22.6143C24.1137 28.9153 25.5517 28.3196 26.6119 27.2594C27.6722 26.1991 28.2678 24.7611 28.2678 23.2617V9.4419C28.2678 6.31673 25.7394 3.78833 22.6143 3.78833H8.79443ZM23.9491 6.14398C24.4698 6.14398 24.9691 6.3508 25.3372 6.71894C25.7054 7.08709 25.9122 7.58639 25.9122 8.10703C25.9122 8.62766 25.7054 9.12696 25.3372 9.49511C24.9691 9.86325 24.4698 10.0701 23.9491 10.0701C23.4285 10.0701 22.9292 9.86325 22.561 9.49511C22.1929 9.12696 21.9861 8.62766 21.9861 8.10703C21.9861 7.58639 22.1929 7.08709 22.561 6.71894C22.9292 6.3508 23.4285 6.14398 23.9491 6.14398ZM15.7043 8.49963C17.7869 8.49963 19.7841 9.32691 21.2567 10.7995C22.7292 12.2721 23.5565 14.2693 23.5565 16.3518C23.5565 18.4343 22.7292 20.4316 21.2567 21.9041C19.7841 23.3767 17.7869 24.204 15.7043 24.204C13.6218 24.204 11.6246 23.3767 10.152 21.9041C8.67945 20.4316 7.85217 18.4343 7.85217 16.3518C7.85217 14.2693 8.67945 12.2721 10.152 10.7995C11.6246 9.32691 13.6218 8.49963 15.7043 8.49963ZM15.7043 11.6405C14.4548 11.6405 13.2565 12.1369 12.373 13.0204C11.4894 13.904 10.993 15.1023 10.993 16.3518C10.993 17.6013 11.4894 18.7997 12.373 19.6832C13.2565 20.5667 14.4548 21.0631 15.7043 21.0631C16.9539 21.0631 18.1522 20.5667 19.0357 19.6832C19.9193 18.7997 20.4157 17.6013 20.4157 16.3518C20.4157 15.1023 19.9193 13.904 19.0357 13.0204C18.1522 12.1369 16.9539 11.6405 15.7043 11.6405Z" fill="#FAE260"/>
</g>
<defs>
<filter id="filter0_d_270_116" x="0" y="0.647461" width="31.9087" height="32.4087" filterUnits="userSpaceOnUse" color-interpolation-filters="sRGB">
<feFlood flood-opacity="0" result="BackgroundImageFix"/>
<feColorMatrix in="SourceAlpha" type="matrix" values="0 0 0 0 0 0 0 0 0 0 0 0 0 0 0 0 0 0 127 0" result="hardAlpha"/>
<feOffset dx="0.5" dy="1"/>
<feComposite in2="hardAlpha" operator="out"/>
<feColorMatrix type="matrix" values="0 0 0 0 0 0 0 0 0 0 0 0 0 0 0 0 0 0 0.25 0"/>
<feBlend mode="normal" in2="BackgroundImageFix" result="effect1_dropShadow_270_116"/>
<feBlend mode="normal" in="SourceGraphic" in2="effect1_dropShadow_270_116" result="shape"/>
</filter>
</defs>
</svg>
