<svg width="1069" height="155" viewBox="0 0 1069 155" fill="none" xmlns="http://www.w3.org/2000/svg">
<path opacity="0.8" d="M27.0916 114.415C27.6028 116.417 28.1139 118.434 28.6251 120.464C19.0834 119.853 9.5417 119.284 0 118.757C0.312377 117.218 0.621204 115.68 0.926482 114.141C2.45997 106.47 3.48229 96.1223 3.48229 88.3352C3.48229 85.1318 3.48229 81.9284 3.48229 78.725C3.48229 70.137 2.6623 61.3383 0.926482 52.9927C0.621204 51.4612 0.312377 49.9298 0 48.3984C12.2395 47.4008 24.4754 46.3436 36.7078 45.2266C53.2674 43.7198 65.4288 49.9474 65.1306 67.1444C64.8218 89.5891 43.2465 89.5575 28.9339 89.5364C27.6773 89.5364 26.4172 89.5364 25.1534 89.5364C24.8446 97.6186 25.6646 108.693 27.0916 114.415ZM28.9339 49.705C27.6773 49.8104 26.4172 49.9158 25.1534 50.0211C25.1534 62.0759 25.1534 74.0429 25.1534 85.9221C26.4172 85.9151 27.6773 85.9045 28.9339 85.8905C37.826 85.8378 43.7576 79.5048 43.7576 67.6607C43.7576 55.8167 37.826 48.9674 28.9339 49.705ZM98.9738 43.8462C98.8673 44.3169 98.7644 44.784 98.665 45.2477C97.238 54.7103 96.1092 67.2498 96.1092 76.607C96.1092 77.8294 96.1092 79.0552 96.1092 80.2846C99.5524 80.2284 102.996 80.1722 106.439 80.116C111.444 80.0317 117.269 77.3868 121.06 73.4458C121.841 72.652 122.622 71.8511 123.403 71.0433C123.403 78.3633 123.403 85.6832 123.403 93.0032C122.622 92.2305 121.841 91.4542 121.06 90.6745C117.269 86.7124 111.444 84.3204 106.439 84.3625C102.996 84.3977 99.5524 84.4293 96.1092 84.4574C96.1092 85.6867 96.1092 86.9161 96.1092 88.1455C96.1092 97.4922 97.238 110.011 98.665 119.431C98.7644 119.888 98.8673 120.348 98.9738 120.811C104.973 121.156 110.972 121.5 116.971 121.844C121.87 122.129 127.705 119.831 131.486 116.059C132.267 115.307 133.051 114.549 133.839 113.783C134.145 118.314 134.45 122.852 134.755 127.397C113.492 126.027 92.2257 124.651 70.9557 123.267C71.2681 121.489 71.5769 119.712 71.8822 117.935C73.4157 109.073 74.438 97.1444 74.438 88.1771C74.438 84.489 74.438 80.8009 74.438 77.1128C74.438 68.1455 73.4157 56.2487 71.8822 47.4184C71.5769 45.6481 71.2681 43.8778 70.9557 42.1075C92.2257 40.1827 113.492 38.2684 134.755 36.3646C134.45 40.9168 134.145 45.4584 133.839 49.9895C133.051 49.2519 132.267 48.5108 131.486 47.7661C127.705 43.9727 121.87 41.9495 116.971 42.3604C110.972 42.8522 104.973 43.3474 98.9738 43.8462ZM176.809 112.74C176.809 93.2245 140.612 84.7314 141.23 57.2603C141.539 42.6239 151.347 31.8652 165.457 29.979C177.011 28.1665 185.392 33.7408 193.475 43.6776C193.475 52.9365 193.475 62.1883 193.475 71.4331C193.198 71.4402 192.925 71.4472 192.655 71.4542C189.684 51.8968 182.528 36.8599 172.613 37.6607C163.923 38.3773 160.654 45.2793 160.654 52.0654C160.654 74.5522 199.3 78.0085 195.615 110.232C193.773 125.606 183.656 134.963 169.748 134.7C158.205 134.436 149.717 127.798 141.741 117.608C141.741 108.237 141.741 98.8796 141.741 89.5364C141.876 89.5364 142.011 89.5364 142.146 89.5364C145.117 111.707 152.167 125.216 162.592 125.827C171.282 126.333 176.809 120.264 176.809 112.74ZM231.919 27.7345C231.613 30.0738 231.304 32.4131 230.992 34.7524C229.459 46.3752 228.436 61.8968 228.436 73.5196C228.436 78.3106 228.436 83.0981 228.436 87.882C228.436 99.5048 229.459 115.005 230.992 126.586C231.304 128.911 231.613 131.24 231.919 133.572C222.377 132.968 212.835 132.364 203.293 131.76C203.599 129.554 203.904 127.352 204.209 125.153C205.743 114.12 206.765 99.1887 206.765 87.9242C206.765 83.2948 206.765 78.6618 206.765 74.0253C206.765 62.7609 205.743 47.861 204.209 36.8599C203.904 34.6611 203.599 32.4658 203.293 30.274C212.835 29.424 222.377 28.5775 231.919 27.7345ZM275.591 116.375C275.591 93.8462 239.394 83.9832 240.012 51.9495C240.321 34.9421 250.129 22.6449 264.239 20.6744C275.793 18.7672 284.174 25.2688 292.257 36.7756C292.257 47.4184 292.257 58.0647 292.257 68.7145C291.98 68.7215 291.707 68.7285 291.437 68.7356C288.466 46.1855 281.31 28.8093 271.395 29.6207C262.705 30.3267 259.436 38.2614 259.436 46.1117C259.436 72.1708 298.082 76.3014 294.398 113.393C292.555 131.054 282.438 141.865 268.531 141.707C256.987 141.539 248.499 133.973 240.523 122.255C240.523 111.359 240.523 100.467 240.523 89.5786C240.658 89.5786 240.793 89.5786 240.928 89.5786C243.899 115.374 250.949 130.97 261.374 131.57C270.064 132.076 275.591 125.047 275.591 116.375ZM330.701 18.999C330.388 21.6614 330.079 24.3204 329.774 26.9758C328.241 40.2319 327.218 57.9453 327.218 71.254C327.218 76.7335 327.218 82.2129 327.218 87.6924C327.218 100.991 328.241 118.683 329.774 131.886C330.079 134.528 330.388 137.173 330.701 139.821C321.159 139.217 311.617 138.613 302.076 138.008C302.381 135.487 302.686 132.965 302.991 130.443C304.525 117.798 305.547 100.664 305.547 87.7345C305.547 82.4026 305.547 77.0742 305.547 71.7493C305.547 58.8093 304.525 41.7071 302.991 29.0833C302.686 26.5613 302.381 24.0429 302.076 21.528C311.617 20.685 321.159 19.842 330.701 18.999ZM368.335 92.0549C367.419 91.2962 366.397 90.7588 365.375 89.842C364.728 89.842 364.082 89.842 363.436 89.842C363.128 103.73 363.948 122.582 365.375 132.15C365.886 135.465 366.397 138.788 366.908 142.118C357.366 141.514 347.825 140.906 338.283 140.295C338.588 137.661 338.893 135.026 339.199 132.392C340.732 119.157 341.755 101.212 341.755 87.6608C341.755 82.083 341.755 76.5016 341.755 70.9168C341.755 55.9537 340.945 40.685 339.199 26.2277C338.893 23.5933 338.588 20.959 338.283 18.3246C350.515 17.2428 362.748 16.1574 374.98 15.0685C391.55 13.6038 403.605 24.3941 403.403 52.5923C403.201 79.3257 392.061 86.8388 380.507 89.1044C383.063 90.2319 385.31 91.7493 387.557 93.6355C393.595 98.9779 399.729 112.814 406.981 137.408C407.698 139.874 408.415 142.346 409.132 144.826C399.59 144.215 390.049 143.604 380.507 142.993C380.472 141.735 380.436 140.495 380.401 139.273C379.794 116.523 374.98 97.6397 368.335 92.0549ZM363.436 22.2972C363.436 42.7187 363.436 63.1543 363.436 83.6039C364.693 83.5968 365.953 83.5898 367.217 83.5828C376.109 83.5195 382.041 72.8135 382.041 52.7714C382.041 32.9294 376.109 21.2645 367.217 21.9916C365.953 22.097 364.693 22.1989 363.436 22.2972ZM476.552 149.874C457.128 147.966 443.742 119.515 443.742 78.0823C443.742 34.9948 457.341 10.137 474.103 4.73134C487.191 0.61121 503.442 8.49319 496.594 23.9305C495.302 26.7756 494.006 29.6172 492.707 32.4553C490.769 16.8915 485.146 12.2972 481.153 12.6239C474.721 13.1613 465.616 26.4489 465.616 77.8399C465.616 129.147 472.058 141.992 481.664 141.939C484.433 141.907 486.776 140.79 488.927 138.409C488.927 127.141 488.927 115.845 488.927 104.521C488.927 97.5554 487.904 88.862 486.573 82.2867C485.622 78.0717 484.667 73.8568 483.709 69.6418C491.518 69.5083 499.324 69.3854 507.126 69.273C506.168 73.6003 505.213 77.9207 504.262 82.234C502.93 88.9147 501.908 97.7134 501.908 104.774C501.908 120.158 501.908 135.483 501.908 150.748C497.51 148.778 493.325 144.953 488.927 145.933C485.455 146.544 481.77 150.443 476.552 149.874ZM544.196 154.426C525.081 154.468 512.302 123.52 512.302 77.6818C512.302 31.4331 525.081 -0.0421074 544.196 4.22815e-05C563.311 1.48582 576.091 32.4763 576.091 77.8083C576.091 122.803 563.311 153.277 544.196 154.426ZM544.196 7.69235C540.416 7.54483 534.793 21.391 534.793 77.6291C534.793 133.298 540.416 146.955 544.196 146.849C547.881 146.691 553.599 132.887 553.599 77.6713C553.599 21.9495 547.881 7.88202 544.196 7.69235ZM613.022 92.4553C612.106 91.6334 611.084 91.0433 610.062 90.0211C609.415 90.0211 608.769 90.0247 608.123 90.0317C607.815 105.606 608.635 126.628 610.062 137.123C610.573 140.734 611.084 144.345 611.595 147.956C602.053 148.595 592.512 149.234 582.97 149.874C583.275 146.74 583.581 143.607 583.886 140.474C585.419 124.752 586.442 103.551 586.442 87.5659C586.442 80.9765 586.442 74.3836 586.442 67.7872C586.442 50.1054 585.632 31.9811 583.886 14.6576C583.581 11.4893 583.275 8.32459 582.97 5.16337C595.202 6.26629 607.435 7.3692 619.667 8.47212C636.237 9.9579 648.292 23.1297 648.09 51.8652C647.888 79.136 636.748 86.7651 625.194 89.1571C627.75 90.3689 629.997 91.9706 632.244 93.9516C638.282 99.4416 644.416 113.52 651.668 137.977C652.385 140.379 653.102 142.785 653.819 145.195C644.277 145.813 634.736 146.435 625.194 147.06C625.159 145.725 625.123 144.401 625.088 143.088C624.481 118.715 619.667 98.4932 613.022 92.4553ZM608.123 14.3415C608.123 37.1936 608.123 60.0914 608.123 83.0348C609.38 83.0419 610.64 83.0489 611.904 83.0559C620.796 83.0981 626.728 71.665 626.728 50.1581C626.728 28.8831 620.796 15.3952 611.904 14.6576C610.64 14.5522 609.38 14.4468 608.123 14.3415ZM688.003 144.826C668.888 146.091 656.109 119.758 656.109 78.6407C656.109 37.2814 668.888 11.1592 688.003 12.8873C707.129 14.626 719.908 41.117 719.908 79.3994C719.908 117.471 707.129 143.572 688.003 144.826ZM688.003 19.41C684.223 19.0938 678.6 30.5164 678.6 78.9042C678.6 127.05 684.223 138.546 688.003 138.325C691.688 138.114 697.417 126.196 697.417 79.1255C697.417 31.823 691.688 19.7155 688.003 19.41ZM767.521 137.935C759.584 115.104 751.643 91.9073 743.698 68.3457C740.834 59.8631 736.958 49.3362 733.166 39.9579C733.166 65.9994 733.166 92.0373 733.166 118.072C733.166 122.297 734.189 127.355 735.722 130.453C737.192 133.53 738.658 136.604 740.12 139.673C734.327 140.039 728.534 140.408 722.741 140.78C724.21 137.471 725.676 134.176 727.139 130.896C728.672 127.619 729.695 122.445 729.695 118.198C729.695 89.3889 729.695 60.5726 729.695 31.7493C729.492 31.3804 729.386 30.843 729.184 30.4742C727.345 26.2452 725.506 22.0022 723.667 17.745C732.08 18.4897 740.497 19.2343 748.917 19.979C759.715 52.2024 770.517 83.7654 781.322 114.668C781.322 90.98 781.322 67.2955 781.322 43.6144C781.322 39.6207 780.193 34.7313 778.766 31.4437C777.304 28.3808 775.838 25.3109 774.368 22.234C780.161 22.7468 785.955 23.2596 791.748 23.7724C790.25 26.5403 788.752 29.3151 787.254 32.097C785.816 35.1318 784.794 39.8525 784.794 43.8357C784.794 74.8367 784.794 105.838 784.794 136.839C779.036 137.204 773.279 137.569 767.521 137.935ZM840.585 35.901C840.585 53.2456 840.585 70.5726 840.585 87.882C840.585 99.5048 841.512 114.91 843.045 126.291C843.386 128.56 843.727 130.829 844.067 133.098C834.49 133.702 824.913 134.306 815.336 134.911C815.641 132.515 815.946 130.119 816.252 127.724C817.785 115.796 818.807 99.8315 818.807 87.8399C818.807 69.9755 818.807 52.1005 818.807 34.215C816.529 34.0394 814.246 33.8638 811.96 33.6881C807.157 33.3088 801.332 35.9431 797.445 40.6955C796.693 41.6298 795.944 42.5606 795.198 43.4879C794.893 36.9899 794.584 30.4918 794.272 23.9937C817.821 26.0731 841.37 28.156 864.919 30.2424C864.649 36.0942 864.375 41.9424 864.099 47.7872C863.318 46.8529 862.533 45.9115 861.745 44.9632C857.965 40.0949 852.139 36.7967 847.23 36.4173C845.015 36.2487 842.8 36.0766 840.585 35.901ZM909.784 34.2256C910.089 36.4173 910.394 38.6091 910.699 40.8009C912.137 51.3699 914.789 64.8999 917.451 74.7735C918.743 79.3959 920.039 84.0043 921.338 88.5986C924.096 98.2403 928.388 110.443 932.275 119.21C933.467 121.9 934.66 124.584 935.853 127.26C926.311 127.872 916.769 128.483 907.228 129.094C906.923 126.881 906.614 124.675 906.301 122.476C905.79 117.492 904.768 111.56 903.65 105.912C893.902 106.178 884.155 106.442 874.407 106.702C874.308 107.039 874.205 107.38 874.098 107.724C872.266 114.626 872.362 123.678 874.407 130.443C874.478 130.674 874.545 130.913 874.609 131.159C868.546 131.546 862.483 131.932 856.42 132.318C857.578 130.843 858.735 129.375 859.892 127.914C863.875 122.94 867.762 115.1 869.711 108.135C875.397 87.1936 881.088 66.5051 886.781 46.0696C886.164 44.3204 885.45 42.5501 884.833 41.0749C883.611 37.9488 882.387 34.8192 881.159 31.686C890.7 32.529 900.242 33.3755 909.784 34.2256ZM889.135 52.9189C884.669 69.0271 880.204 85.2969 875.738 101.728C884.733 101.553 893.728 101.377 902.723 101.201C901.701 96.7756 900.679 92.3288 899.656 88.5775C898.364 83.8146 897.072 79.0412 895.78 74.2572C894.033 67.8715 891.691 60.1476 889.135 52.9189ZM968.056 120.896C974.055 120.552 980.054 120.207 986.053 119.863C990.963 119.579 996.788 116.849 1000.57 113.088C1001.35 112.35 1002.13 111.609 1002.92 110.864C1003.23 114.847 1003.53 118.844 1003.84 122.856C982.575 124.247 961.312 125.627 940.049 126.997C940.354 124.995 940.659 123 940.965 121.012C942.498 111.117 943.52 97.9453 943.52 88.0928C943.52 84.0394 943.52 79.9825 943.52 75.9221C943.52 66.0696 942.498 52.8768 940.965 42.94C940.659 40.9379 940.354 38.9323 940.049 36.9231C949.59 37.7802 959.132 38.6372 968.674 39.4943C968.369 41.3559 968.06 43.2175 967.747 45.0791C966.32 54.3942 965.192 66.9547 965.192 76.4279C965.192 80.3267 965.192 84.2291 965.192 88.1349C965.192 97.6081 966.32 110.2 967.747 119.547C967.854 119.99 967.957 120.439 968.056 120.896ZM1037.09 121.76C1017.98 123.066 1005.2 107.387 1005.2 82.9084C1005.2 58.293 1017.98 42.9189 1037.09 44.7103C1056.21 46.4595 1069 61.9811 1069 83.6881C1069 105.29 1056.21 120.485 1037.09 121.76ZM1037.09 48.6091C1033.31 48.2825 1027.69 54.8999 1027.69 83.1824C1027.69 111.349 1033.31 118.082 1037.09 117.85C1040.78 117.629 1046.5 110.485 1046.5 83.4142C1046.5 56.2277 1040.78 48.9252 1037.09 48.6091Z" fill="#F4F7C2"/>
</svg>
