<svg width="761" height="91" viewBox="0 0 761 91" fill="none" xmlns="http://www.w3.org/2000/svg">
<path opacity="0.7" d="M15.9423 83.645C16.2337 84.7119 16.5439 85.7788 16.8353 86.8552C11.2141 86.7891 5.60236 86.7135 0 86.638C0.178599 85.7411 0.347798 84.8441 0.535796 83.9472C1.43819 79.453 2.03979 73.401 2.03979 68.8407C2.04919 66.9524 2.03979 65.0546 2.03979 63.1663C2.04919 58.1245 1.56039 52.9317 0.535796 47.9654C0.347798 47.0685 0.169199 46.1432 0 45.2463C7.19095 45.6145 14.3913 46.0016 21.6011 46.3887C31.33 46.9458 38.5021 50.9112 38.3141 59.3803C38.1449 70.6063 25.4456 70.2475 17.0233 69.9926C16.2807 69.9737 15.5381 69.9454 14.7955 69.9265C14.6075 74.449 15.0775 80.5577 15.9423 83.645ZM17.0139 48.1543C16.2807 48.1165 15.5287 48.0787 14.7861 48.0315C14.7955 54.6501 14.7955 61.2591 14.7861 67.906C15.5381 67.9343 16.2807 67.9532 17.0233 67.9815C22.259 68.1326 25.737 64.9036 25.737 58.6155C25.737 52.403 22.259 48.4375 17.0139 48.1543ZM56.4278 50.2503C56.3714 50.458 56.3056 50.6563 56.2398 50.8546C55.4126 55.056 54.7358 60.7399 54.7452 65.0641C54.7452 65.6306 54.7452 66.2065 54.7452 66.773C56.7756 66.8297 58.7966 66.9052 60.8082 66.9713C63.7692 67.0846 67.1813 66.0743 69.4185 64.4693C69.8791 64.1577 70.3491 63.8367 70.8097 63.5251C70.8097 66.6786 70.8097 69.8509 70.8003 73.0139C70.3491 72.6645 69.8791 72.3152 69.4279 71.9659C67.1813 70.1625 63.7692 69.0012 60.8082 68.9068C58.7872 68.8313 56.7662 68.7557 54.7452 68.6991C54.7358 69.275 54.7452 69.8415 54.7452 70.408C54.7452 74.7133 55.4126 80.4821 56.2492 84.7403C56.3056 84.9385 56.3714 85.1557 56.4278 85.3634C59.9528 85.4106 63.4778 85.4578 67.0121 85.4956C69.9073 85.5333 73.3289 84.4759 75.5567 82.852C76.0079 82.5215 76.4685 82.2005 76.9479 81.8889C77.1265 83.7489 77.3051 85.6372 77.4931 87.5161C64.963 87.3745 52.461 87.2423 39.9403 87.1006C40.1283 86.2415 40.2975 85.3823 40.4949 84.5231C41.3879 80.2178 41.9895 74.4018 41.9895 70.0209C41.9895 68.2081 41.9895 66.4048 41.9895 64.6014C41.9989 60.23 41.3973 54.3857 40.4949 50.0331C40.2975 49.1551 40.1283 48.2959 39.9403 47.4178C52.461 48.1071 64.9724 48.8057 77.4931 49.495C77.3051 51.3455 77.1171 53.2055 76.9385 55.0749C76.4685 54.7256 76.0079 54.3857 75.5567 54.0175C73.3383 52.2047 69.8979 50.9679 67.0121 50.8074C63.4778 50.6185 59.9528 50.4391 56.4278 50.2503ZM100.429 81.228C100.429 73.7881 79.1287 69.7565 79.4859 58.3984C79.6645 52.4219 85.4548 48.7302 93.755 48.9757C100.551 49.0984 105.486 51.7137 110.233 55.8397C110.233 59.2198 110.233 62.6093 110.224 65.9988C110.073 65.9894 109.913 65.9799 109.754 65.9799C108.005 58.6627 103.803 52.6957 97.9661 52.3935C92.8432 52.1292 90.9256 54.6312 90.9256 57.2748C90.9162 66.1593 113.655 68.5763 111.502 80.2461C110.421 85.8827 104.452 89.4988 96.2835 89.6782C89.478 89.8481 84.4866 87.3745 79.7867 83.3524C79.7961 79.4908 79.7867 75.6292 79.7961 71.7676C79.8713 71.777 79.9464 71.777 80.0311 71.777C81.7794 80.9164 85.9248 86.3076 92.0724 86.3925C97.1859 86.4586 100.42 84.0793 100.429 81.228ZM131.045 52.4219C130.866 53.1772 130.678 53.9514 130.518 54.7067C129.606 58.5683 129.014 63.7895 129.014 67.7455C129.005 69.3789 129.014 71.0028 129.014 72.6456C129.005 76.6111 129.606 81.8795 130.518 85.8072C130.687 86.5908 130.866 87.3744 131.045 88.1487C125.433 88.0731 119.812 88.0165 114.209 87.9598C114.388 87.1667 114.566 86.3642 114.754 85.5711C115.647 81.6151 116.258 76.2806 116.258 72.2585C116.258 70.5968 116.258 68.9446 116.258 67.2828C116.258 63.2702 115.657 57.898 114.754 53.9042C114.557 53.0922 114.378 52.2897 114.2 51.506C119.821 51.7987 125.433 52.1008 131.045 52.4219ZM154.949 82.2666C154.949 75.2893 133.658 71.4938 134.015 60.8154C134.193 55.226 139.965 51.7893 148.275 52.0348C155.071 52.1669 160.006 54.6406 164.743 58.5305C164.753 61.684 164.753 64.8658 164.743 68.0382C164.593 68.0193 164.433 68.0193 164.273 68.0098C162.534 61.1647 158.323 55.5564 152.486 55.2543C147.363 54.9805 145.436 57.3315 145.426 59.8146C145.436 68.1326 168.184 70.4458 166.022 81.3791C164.941 86.6569 158.981 90.0464 150.803 90.2069C143.998 90.358 139.006 88.0354 134.297 84.2493C134.306 80.6143 134.306 76.9888 134.297 73.3726C134.381 73.3726 134.466 73.3821 134.551 73.3821C136.299 81.955 140.435 87.0346 146.583 87.1006C151.687 87.1667 154.949 84.948 154.949 82.2666ZM185.574 55.3865C185.376 56.0946 185.198 56.8027 185.038 57.5203C184.135 61.127 183.534 66.0082 183.534 69.6904C183.534 71.2294 183.524 72.7589 183.534 74.279C183.524 77.9896 184.135 82.918 185.038 86.6002C185.207 87.3367 185.386 88.0542 185.564 88.8001C179.952 88.7246 174.331 88.6585 168.729 88.5924C168.907 87.8465 169.086 87.1006 169.274 86.3736C170.176 82.6537 170.778 77.6497 170.778 73.8919C170.769 72.3341 170.778 70.7951 170.778 69.2467C170.778 65.489 170.167 60.4661 169.274 56.7178C169.086 55.953 168.907 55.2071 168.719 54.4612C174.341 54.7634 179.943 55.0655 185.574 55.3865ZM205.924 76.0729C205.379 75.8841 204.778 75.7141 204.176 75.4592C203.781 75.4498 203.405 75.4498 203.02 75.4309C202.841 79.0376 203.33 83.9566 204.176 86.4397C204.477 87.2989 204.778 88.1487 205.078 89.0173C199.457 88.9512 193.845 88.8851 188.234 88.8284C188.412 88.1014 188.591 87.3744 188.779 86.6474C189.672 83.0313 190.283 78.1501 190.283 74.4773C190.283 72.9572 190.283 71.4466 190.283 69.9454C190.283 65.8855 189.785 61.7312 188.779 57.7186C188.591 56.9916 188.412 56.2646 188.234 55.5281C195.425 55.9058 202.625 56.2929 209.835 56.6989C219.573 57.2182 226.67 60.4566 226.557 67.1979C226.435 73.5709 219.874 75.1665 213.078 75.5348C214.582 75.8652 215.907 76.2712 217.233 76.781C220.767 78.1689 224.386 81.6057 228.653 87.5444C229.076 88.1203 229.49 88.7246 229.913 89.31C224.301 89.2533 218.68 89.1778 213.078 89.1211C213.059 88.7907 213.04 88.4886 213.021 88.177C212.655 82.4365 209.835 77.6119 205.924 76.0729ZM203.029 57.9452C203.029 63.2324 203.02 68.5197 203.029 73.8164C203.772 73.8353 204.505 73.8636 205.257 73.8919C210.493 74.043 213.98 71.4843 213.971 66.4803C213.98 61.5235 210.493 58.3228 205.257 58.049C204.514 58.0113 203.762 57.9735 203.029 57.9452ZM265.99 89.8481C254.55 89.6027 246.683 83.2768 246.673 74.0524C246.683 64.4787 254.682 59.6541 264.552 59.3614C272.25 59.1726 281.81 61.5613 277.787 64.3276C277.016 64.8375 276.255 65.3568 275.493 65.8949C274.356 62.6659 271.047 61.4763 268.697 61.3441C264.9 61.1458 259.542 63.5346 259.551 74.4584C259.542 85.4484 263.349 88.1959 268.998 88.1392C270.605 88.1014 272.006 87.8654 273.266 87.3556C273.275 85.0329 273.266 82.7009 273.266 80.3877C273.275 78.962 272.673 77.1776 271.884 75.8086C271.32 74.9305 270.756 74.0524 270.201 73.1649C274.788 73.316 279.385 73.4765 283.981 73.637C283.417 74.4679 282.844 75.2893 282.289 76.1296C281.509 77.4136 280.898 79.1509 280.898 80.5577C280.898 83.6356 280.889 86.7324 280.898 89.8387C278.304 89.461 275.86 88.6963 273.275 88.9323C271.226 89.0739 269.064 89.9331 265.99 89.8481ZM303.985 90.5468C292.742 90.4335 285.222 84.3343 285.222 75.327C285.222 66.3293 292.742 60.7965 303.985 61.4102C315.246 62.0239 322.766 68.0004 322.766 76.46C322.756 84.9669 315.246 90.6507 303.985 90.5468ZM303.985 62.8453C301.757 62.7226 298.448 65.1585 298.457 75.7236C298.457 86.3642 301.757 89.055 303.985 89.0739C306.147 89.1023 309.53 86.5342 309.53 76.0635C309.53 65.6872 306.147 62.9397 303.985 62.8453ZM342.684 79.7174C342.139 79.5474 341.547 79.4152 340.945 79.1981C340.56 79.1981 340.174 79.1981 339.798 79.1886C339.62 82.1344 340.099 86.2131 340.945 88.2997C341.246 89.0078 341.547 89.7443 341.847 90.4618C336.217 90.4146 330.615 90.3674 324.993 90.3202C325.181 89.716 325.36 89.1023 325.548 88.498C326.45 85.4861 327.052 81.4263 327.043 78.4144C327.043 77.1587 327.052 75.9219 327.052 74.6945C327.052 71.3805 326.563 67.9721 325.548 64.6959C325.351 64.0916 325.172 63.5062 325.003 62.8925C332.203 63.2796 339.403 63.6573 346.604 64.0255C356.342 64.5165 363.448 67.0846 363.326 72.4002C363.204 77.5552 356.643 78.9054 349.837 79.2453C351.351 79.5002 352.676 79.8307 354.002 80.2366C357.545 81.3507 361.155 84.1549 365.422 89.1023C365.845 89.5932 366.268 90.0842 366.682 90.6035C361.07 90.5751 355.459 90.5468 349.847 90.5279C349.828 90.2447 349.809 89.9803 349.781 89.7254C349.424 84.9196 346.604 80.9448 342.684 79.7174ZM339.798 64.9886C339.798 69.2561 339.798 73.5426 339.798 77.8479C340.541 77.8857 341.283 77.8951 342.017 77.9235C347.262 78.0273 350.74 75.9313 350.749 71.9092C350.749 67.9343 347.252 65.3379 342.026 65.0924C341.283 65.0546 340.541 65.0263 339.798 64.9886ZM385.012 91C373.76 91 366.24 85.505 366.24 77.4797C366.24 69.681 373.76 64.9225 385.012 64.9697C396.245 64.5637 403.765 69.3883 403.774 77.3098C403.774 85.42 396.254 90.9906 385.012 91ZM385.012 66.1687C382.784 66.1876 379.475 68.3875 379.475 77.5741C379.466 87.1856 382.784 89.6404 385.012 89.6404C387.174 89.6404 390.539 87.1667 390.539 77.5269C390.539 68.2553 387.174 66.1215 385.012 66.1687ZM429.991 90.3769C425.319 85.0046 420.647 79.7362 415.975 74.5528C414.293 72.7873 411.999 70.6346 409.771 68.7746C409.781 74.3074 409.771 79.9251 409.771 85.5994C409.771 86.5342 410.382 87.6766 411.285 88.3753C412.14 89.0834 412.996 89.782 413.87 90.4996C410.458 90.5185 407.045 90.5468 403.643 90.5563C404.507 89.8387 405.353 89.1211 406.228 88.413C407.121 87.6955 407.732 86.553 407.722 85.6278C407.732 79.3869 407.732 73.2405 407.732 67.179C407.609 67.1129 407.544 66.9902 407.431 66.9335C406.34 66.1121 405.259 65.319 404.188 64.5259C409.123 64.271 414.086 64.0255 419.04 63.7706C425.385 70.6157 431.758 77.6308 438.112 84.8064C438.112 79.0753 438.112 73.3915 438.112 67.7172C438.112 66.773 437.454 65.6495 436.599 64.9602C435.743 64.2993 434.888 63.6384 434.023 62.9964C437.426 62.7981 440.838 62.6282 444.25 62.4488C443.367 63.2041 442.483 63.95 441.6 64.6959C440.763 65.4984 440.161 66.688 440.161 67.6322C440.161 75.1193 440.161 82.6726 440.161 90.2824C436.759 90.3108 433.375 90.3485 429.991 90.3769ZM471.181 63.1474C471.181 67.8777 471.181 72.6268 471.181 77.4042C471.172 80.5954 471.726 84.8724 472.619 88.0354C472.826 88.6774 473.024 89.31 473.221 89.952C467.59 90.0086 461.96 90.0842 456.329 90.1314C456.489 89.5082 456.677 88.8757 456.865 88.2431C457.767 85.1085 458.36 80.8881 458.36 77.7535C458.369 73.08 458.369 68.4347 458.369 63.7895C457.025 63.8556 455.671 63.9217 454.327 63.9972C451.516 64.1388 448.076 65.0641 445.792 66.4142C445.35 66.6691 444.908 66.9429 444.476 67.2073C444.288 65.6117 444.109 64.0444 443.931 62.4488C457.777 61.7312 471.642 60.9853 485.507 60.2395C485.337 61.9295 485.168 63.6384 485.018 65.3473C484.557 65.1113 484.097 64.8753 483.636 64.6487C481.399 63.4307 477.977 62.7981 475.092 62.9492C473.785 63.0153 472.478 63.0814 471.181 63.1474ZM510.097 58.9082C510.275 59.5974 510.454 60.2772 510.642 60.9665C511.479 64.2993 513.039 68.5858 514.609 71.7581C515.37 73.2405 516.132 74.7417 516.884 76.2334C518.519 79.4436 521.029 83.5601 523.332 86.5719C524.028 87.4972 524.733 88.4225 525.438 89.3761C519.816 89.4327 514.205 89.5082 508.574 89.5649C508.405 88.8473 508.217 88.1392 508.057 87.4122C507.738 85.826 507.145 83.9094 506.487 82.0966C500.753 82.2099 495.019 82.3327 489.285 82.4554C489.22 82.5687 489.144 82.6726 489.097 82.7764C487.998 84.8347 488.082 87.535 489.285 89.5743C489.304 89.6404 489.361 89.7065 489.408 89.7915C485.836 89.8293 482.254 89.867 478.692 89.9048C479.359 89.4894 480.055 89.0834 480.732 88.6585C483.072 87.2612 485.366 84.9669 486.512 82.918C489.859 76.5922 493.215 70.238 496.561 63.8461C496.204 63.3457 495.762 62.8548 495.414 62.4299C494.69 61.5613 493.967 60.6832 493.252 59.8146C498.864 59.5125 504.466 59.2009 510.097 58.9082ZM497.943 65.8288C495.301 70.8895 492.688 75.9407 490.066 80.9731C495.358 80.8409 500.65 80.7182 505.952 80.6049C505.35 79.2075 504.73 77.7913 504.137 76.6016C503.376 75.1476 502.615 73.6653 501.853 72.2019C500.829 70.2664 499.447 67.9532 497.943 65.8288ZM542.574 87.5916C546.117 87.5255 549.642 87.4783 553.177 87.4405C556.044 87.3933 559.494 86.402 561.721 84.9196C562.163 84.6175 562.624 84.3248 563.094 84.0416C563.282 85.675 563.46 87.2895 563.639 88.9323C551.118 89.0834 538.607 89.2156 526.105 89.3761C526.284 88.6679 526.462 87.9881 526.641 87.3084C527.543 83.8433 528.135 79.2075 528.145 75.7236C528.145 74.2979 528.145 72.8817 528.145 71.456C528.145 67.9815 527.543 63.4118 526.641 60.0506C526.462 59.3803 526.274 58.7005 526.105 58.049C531.717 57.7374 537.328 57.4259 542.95 57.1237C542.762 57.8319 542.583 58.54 542.405 59.2292C541.568 62.7603 540.882 67.4811 540.882 70.9934C540.882 72.4568 540.882 73.9014 540.882 75.3554C540.882 78.8959 541.559 83.5884 542.405 87.0818C542.461 87.2517 542.517 87.4217 542.574 87.5916ZM581.395 89.2061C570.144 89.3383 562.624 82.6631 562.624 72.5135C562.624 62.3449 570.144 55.226 581.405 54.6123C592.657 53.9892 600.176 60.6077 600.176 71.2766C600.167 81.9172 592.657 89.0928 581.395 89.2061ZM581.395 56.3118C579.177 56.4251 575.868 59.6541 575.868 72.0697C575.868 84.4948 579.177 87.5255 581.405 87.4972C583.567 87.4594 586.932 84.2965 586.941 71.7204C586.941 59.1159 583.567 56.1985 581.395 56.3118ZM648.238 78.1595C649 77.6025 649.761 77.0454 650.523 76.4978C650.015 80.3122 649.517 84.1171 649.019 87.9315C638.641 88.0354 628.282 88.1581 617.914 88.2997C617.914 80.7937 646.556 62.0145 640.418 55.5092C639.384 54.4046 637.532 53.8192 635.727 53.9042C632.164 54.1025 628.743 56.8122 631.629 63.3835C632.719 65.8855 628.987 68.1515 626.102 68.1043C623.451 67.991 619.963 66.9807 619.832 63.7612C619.653 55.5753 628.263 50.5902 636.742 50.0992C645.531 49.6083 651.604 54.3574 651.669 59.7296C651.726 68.5102 635.953 73.146 633.377 80.4821C636.197 80.416 639.026 80.3688 641.865 80.3027C643.971 80.2555 646.556 79.4152 648.238 78.1595ZM669.774 88.2336C660.261 88.3375 653.954 80.8598 653.954 69.5016C653.954 58.1245 660.27 50.2692 669.774 49.7405C679.277 49.2212 685.594 56.6517 685.594 68.463C685.594 80.2272 679.277 88.1203 669.774 88.2336ZM669.764 53.1111C667.903 53.1961 665.083 56.6894 665.074 69.1334C665.074 81.5679 667.903 84.9385 669.774 84.9102C671.635 84.8819 674.464 81.3791 674.455 68.8313C674.455 56.2362 671.635 53.0072 669.764 53.1111ZM716.613 76.6016C717.375 75.9974 718.146 75.3931 718.907 74.8172C718.399 78.9337 717.901 83.0313 717.403 87.1384C707.035 87.2517 696.667 87.365 686.299 87.4972C686.289 79.3963 714.94 59.1254 708.802 52.0348C707.768 50.864 705.916 50.2125 704.112 50.3164C700.558 50.4958 697.127 53.4227 700.023 60.551C701.104 63.2702 697.362 65.7155 694.486 65.6495C691.835 65.5173 688.338 64.4315 688.226 60.9287C688.038 52.0348 696.648 46.6908 705.136 46.1999C713.916 45.7089 719.988 50.8546 720.044 56.6422C720.11 66.1687 704.347 71.1444 701.762 79.0753C704.572 79.0187 707.402 78.9526 710.25 78.9054C712.355 78.8582 714.94 77.9518 716.613 76.6016ZM743.309 69.0012C743.309 63.5157 743.3 58.049 743.309 52.5918C743.309 50.8168 742.576 48.7963 741.505 47.4367C740.818 46.587 740.132 45.7278 739.455 44.8781C744.663 44.5665 749.88 44.2738 755.097 44C755.097 52.1953 755.087 60.4 755.097 68.6424C757.061 68.5858 759.026 68.5197 761 68.4536C761 70.1531 761 71.8431 761 73.5237C759.082 73.5615 757.184 73.6087 755.275 73.6748C755.51 77.1965 755.943 80.9542 756.488 84.0133C756.638 84.8913 756.798 85.7977 756.967 86.6947C751.75 86.7513 746.534 86.8268 741.317 86.8835C741.523 85.996 741.721 85.1179 741.927 84.221C742.454 81.2091 742.886 77.4892 743.065 73.9769C736.09 74.1468 729.106 74.3168 722.131 74.5056C722.131 73.8542 722.131 73.2216 722.122 72.5796C722.131 65.64 731.823 59.7485 731.823 55.8208C731.823 53.4888 728.213 54.3007 727.414 50.458C726.765 46.9835 729.52 44.6987 732.302 44.3493C736.212 43.9811 741.025 47.3517 735.733 55.7736C732.96 60.0978 728.025 64.9225 726.944 69.5016C732.396 69.3222 737.857 69.1523 743.309 69.0012Z" fill="#F4F7C2"/>
<path d="M313.7 42.2878C313.69 42.9278 313.41 43.2578 312.84 43.2778C311.46 43.3245 310.09 43.3745 308.73 43.4278C308.16 43.4478 307.86 43.1478 307.86 42.5278C307.867 34.0345 307.867 25.5211 307.86 16.9878C305.2 17.4011 302.533 17.8045 299.86 18.1978C299.28 18.2778 299.01 18.0178 299.01 17.4278C299.003 16.1411 299 14.8511 299 13.5578C299 12.9678 299.29 12.6078 299.86 12.5078C307.147 11.1878 314.433 9.84779 321.72 8.48779C322.29 8.38779 322.58 8.67779 322.58 9.34779C322.573 10.8011 322.57 12.2478 322.57 13.6878C322.58 14.3478 322.29 14.7278 321.72 14.8178C319.04 15.2378 316.367 15.6578 313.7 16.0778C313.7 24.8511 313.7 33.5878 313.7 42.2878ZM348.95 41.0078C348.95 41.7278 348.66 42.0878 348.1 42.1078C341.38 42.3078 334.663 42.5178 327.95 42.7378C327.36 42.7578 327.08 42.4378 327.09 41.7678C327.083 30.8078 327.083 19.7278 327.09 8.52779C327.09 7.84779 327.36 7.44779 327.94 7.33779C334.56 6.12446 341.18 4.92446 347.8 3.73779C348.37 3.63779 348.66 3.96779 348.66 4.72779C348.653 6.32112 348.653 7.91112 348.66 9.49779C348.66 10.2578 348.36 10.6678 347.8 10.7478C342.833 11.4811 337.873 12.2245 332.92 12.9778C332.913 15.6178 332.913 18.2478 332.92 20.8678C336.753 20.4211 340.587 19.9811 344.42 19.5478C344.99 19.4878 345.28 19.8278 345.28 20.5478C345.28 21.9745 345.277 23.4011 345.27 24.8278C345.28 25.5378 344.99 25.9278 344.42 25.9778C340.58 26.3045 336.747 26.6411 332.92 26.9878C332.913 30.0811 332.91 33.1678 332.91 36.2478C337.977 35.9811 343.04 35.7245 348.1 35.4778C348.67 35.4478 348.96 35.7978 348.96 36.4978C348.953 38.0111 348.95 39.5145 348.95 41.0078ZM379.5 40.3478C379.56 40.5078 379.58 40.6678 379.58 40.8078C379.58 41.0678 379.51 41.2778 379.38 41.4178C379.26 41.5478 379.08 41.6178 378.84 41.6178C377.433 41.6245 376.023 41.6278 374.61 41.6278C374.11 41.6378 373.8 41.3378 373.64 40.7578C373.013 38.5778 372.38 36.3878 371.74 34.1878C367.547 34.2811 363.347 34.3911 359.14 34.5178C358.52 36.6978 357.9 38.8611 357.28 41.0078C357.11 41.5878 356.8 41.8878 356.31 41.8978C354.903 41.9311 353.497 41.9645 352.09 41.9978C351.85 42.0078 351.66 41.9378 351.54 41.8178C351.41 41.6778 351.33 41.4878 351.33 41.2378C351.33 41.0978 351.35 40.9378 351.41 40.7878C355.15 28.4611 358.89 15.5878 362.63 2.16779C362.8 1.48779 363.13 1.11779 363.62 1.03779C364.853 0.857789 366.087 0.677789 367.32 0.497789C367.81 0.437789 368.16 0.727789 368.33 1.37779C372.057 14.7245 375.78 27.7145 379.5 40.3478ZM369.99 27.6078C368.563 22.4678 367.143 17.2811 365.73 12.0478C365.63 11.6011 365.533 11.1478 365.44 10.6878C365.36 11.1611 365.277 11.6311 365.19 12.0978C363.757 17.4845 362.33 22.7745 360.91 27.9678C363.937 27.8278 366.963 27.7078 369.99 27.6078ZM393.31 42.3278C391.06 42.2978 388.93 41.7378 386.9 40.6278C384.88 39.5078 383.14 37.8978 381.67 35.7778C381.51 35.5178 381.42 35.2578 381.41 35.0178C381.41 34.7278 381.53 34.4578 381.75 34.1678C382.61 33.0878 383.47 32.0011 384.33 30.9078C384.51 30.6578 384.71 30.5478 384.91 30.5478C385.13 30.5478 385.34 30.6978 385.52 30.9778C386.56 32.3578 387.75 33.4278 389.08 34.1878C390.42 34.9178 391.79 35.3078 393.2 35.3478C394.83 35.3878 396.1 34.9978 397.04 34.2078C397.98 33.4078 398.45 32.2678 398.46 30.7678C398.46 29.7578 398.23 28.9078 397.77 28.2078C397.31 27.5178 396.62 26.8878 395.7 26.3278C394.78 25.7578 393.49 25.1078 391.82 24.3978C389.21 23.3178 387 21.8178 385.2 19.8878C383.42 17.9478 382.52 15.1578 382.52 11.4978C382.52 9.22779 382.93 7.15779 383.74 5.30779C384.58 3.43779 385.79 2.00779 387.37 1.04779C388.99 0.107789 390.88 -0.202211 393.09 0.127789C394.98 0.417789 396.78 1.16779 398.52 2.36779C400.27 3.54779 401.82 5.00779 403.19 6.77779C403.41 7.04779 403.52 7.32779 403.52 7.63779C403.52 7.90779 403.44 8.16779 403.27 8.42779C402.483 9.54779 401.697 10.6745 400.91 11.8078C400.71 12.0978 400.51 12.2278 400.28 12.1978C400.1 12.1778 399.9 12.0478 399.69 11.8078C398.83 10.7778 397.81 9.88779 396.67 9.15779C395.54 8.39779 394.41 7.95779 393.29 7.83779C391.85 7.68779 390.68 7.94779 389.79 8.65779C388.9 9.35779 388.45 10.4478 388.45 11.8978C388.45 12.9278 388.67 13.7878 389.14 14.4878C389.59 15.1778 390.2 15.7678 390.95 16.2478C391.7 16.7078 392.78 17.2978 394.2 17.9878C394.353 18.0611 394.51 18.1378 394.67 18.2178C396.76 19.2878 398.49 20.3678 399.84 21.4678C401.23 22.5378 402.32 23.8478 403.12 25.3878C403.93 26.9178 404.34 28.7378 404.35 30.8878C404.35 33.2778 403.87 35.3278 402.92 37.0578C402 38.7778 400.69 40.0978 399.01 41.0178C397.35 41.9278 395.44 42.3578 393.31 42.3278ZM431.41 41.7778C431.42 42.4478 431.13 42.7678 430.55 42.7478C423.837 42.5278 417.123 42.3145 410.41 42.1078C409.84 42.0978 409.54 41.7278 409.55 41.0178C409.55 29.1445 409.55 17.0445 409.55 4.71779C409.54 3.96779 409.84 3.63779 410.41 3.73779C417.023 4.92446 423.64 6.12446 430.26 7.33779C430.83 7.43779 431.12 7.84779 431.12 8.52779C431.12 9.98112 431.12 11.4245 431.12 12.8578C431.12 13.5378 430.83 13.8278 430.25 13.7378C425.29 12.9778 420.333 12.2245 415.38 11.4778C415.38 14.2311 415.38 16.9811 415.38 19.7278C419.213 20.1611 423.047 20.6045 426.88 21.0578C427.46 21.1278 427.74 21.5078 427.74 22.1778C427.74 23.5245 427.74 24.8645 427.74 26.1978C427.73 26.8678 427.46 27.1878 426.88 27.1378C423.04 26.7845 419.207 26.4411 415.38 26.1078C415.38 29.3211 415.38 32.5278 415.38 35.7278C420.44 35.9945 425.497 36.2678 430.55 36.5478C431.13 36.5778 431.41 36.9278 431.42 37.5878C431.42 38.9878 431.417 40.3845 431.41 41.7778ZM437.67 42.9978C437.09 42.9778 436.8 42.6378 436.8 41.9878C436.8 31.2745 436.8 20.4645 436.8 9.55779C436.8 8.88779 437.09 8.60779 437.67 8.70779C441.537 9.42779 445.41 10.1478 449.29 10.8678C451.33 11.2478 453.14 12.0378 454.7 13.2278C456.27 14.3678 457.49 15.8178 458.36 17.5378C459.24 19.2178 459.67 21.0678 459.67 23.1078C459.66 25.1678 459.24 26.8778 458.35 28.2478C457.49 29.6178 456.29 30.6578 454.73 31.3478C456.47 35.1945 458.21 39.0111 459.95 42.7978C460.02 42.9878 460.05 43.1378 460.05 43.2478C460.06 43.4378 460 43.5778 459.87 43.6778C459.74 43.7778 459.55 43.8278 459.3 43.8178C457.727 43.7511 456.153 43.6878 454.58 43.6278C454.08 43.6078 453.74 43.3578 453.57 42.8978C452.09 39.4378 450.613 35.9578 449.14 32.4578C448.66 32.4578 448.18 32.4378 447.7 32.3978C446.013 32.2645 444.327 32.1278 442.64 31.9878C442.64 35.3945 442.64 38.8045 442.64 42.2178C442.64 42.8578 442.36 43.1678 441.77 43.1478C440.41 43.1011 439.043 43.0511 437.67 42.9978ZM448.75 26.9378C449.74 27.0478 450.61 26.9278 451.37 26.5778C452.13 26.2178 452.72 25.6878 453.14 24.9678C453.57 24.2278 453.77 23.3678 453.77 22.3878C453.77 21.3378 453.56 20.4178 453.14 19.5878C452.71 18.7778 452.11 18.0978 451.35 17.5878C450.6 17.0778 449.74 16.7378 448.79 16.5878C446.743 16.2611 444.693 15.9378 442.64 15.6178C442.633 19.1911 442.63 22.7445 442.63 26.2778C444.677 26.4978 446.717 26.7178 448.75 26.9378Z" fill="#E4DFFD"/>
</svg>
